<svg xmlns="http://www.w3.org/2000/svg" id="_Шар_1" version="1.1" viewBox="0 0 463.1 466.4"><defs><clipPath id="clippath"><path d="M39.1 14.8h31.3v147.6H39.1z" class="st1"/></clipPath><clipPath id="clippath-1"><path d="M186.2 306.9h31.3v148.4h-31.3z" class="st1"/></clipPath><clipPath id="clippath-2"><path d="M274.3 160.1h31.3v236.4h-31.3z" class="st1"/></clipPath><clipPath id="clippath-3"><path d="M362.9 160.8h31.3v236.5h-31.3z" class="st1"/></clipPath><clipPath id="clippath-4"><path d="M98.3 14h31.4v178H98.3z" class="st1"/></clipPath><clipPath id="clippath-5"><path d="M156.9 14.1h31.2v236.8h-31.2z" class="st1"/></clipPath><clipPath id="clippath-6"><path d="M11 132.3h236.3V163H11z" class="st1"/></clipPath><clipPath id="clippath-7"><path d="M187.1 307.6h148V338h-148z" class="st1"/></clipPath><clipPath id="clippath-8"><path d="M334.7 337.3h118.9v30.1H334.7z" class="st1"/></clipPath><clipPath id="clippath-9"><path d="M128.4 190.5h265.2v30.7H128.4z" class="st1"/></clipPath><style>.st1,.st2,.st4{fill:none}.st2,.st4{stroke:#1b4332;stroke-miterlimit:10}.st10{isolation:isolate}.st14{fill:#1b4332}.st4{stroke-width:1.1px}</style></defs><g id="_Шар_5"><g style="clip-path:url(#clippath)"><path id="_Повтор_за_сіткою_" d="M11.3-13.6h28.4v28.4H11.3z" class="st2"/><path id="_Повтор_за_сіткою_-2" d="M40.6-13.6h28.3v28.4H40.6z" class="st2"/><path id="_Повтор_за_сіткою_-3" d="M70-13.6h28.3v28.4H70z" class="st2"/><path id="_Повтор_за_сіткою_-4" d="M11.3 15.8h28.4v28.3H11.3z" class="st2"/><path id="_Повтор_за_сіткою_-5" d="M40.6 15.8h28.3v28.3H40.6z" class="st2"/><path id="_Повтор_за_сіткою_-6" d="M70 15.8h28.3v28.3H70z" class="st2"/><path id="_Повтор_за_сіткою_-7" d="M11.3 45.2h28.4v28.3H11.3z" class="st2"/><path id="_Повтор_за_сіткою_-8" d="M40.6 45.2h28.3v28.3H40.6z" class="st2"/><path id="_Повтор_за_сіткою_-9" d="M70 45.2h28.3v28.3H70z" class="st2"/><path id="_Повтор_за_сіткою_-10" d="M11.3 74.5h28.4v28.3H11.3z" class="st2"/><path id="_Повтор_за_сіткою_-11" d="M40.6 74.5h28.3v28.3H40.6z" class="st2"/><path id="_Повтор_за_сіткою_-12" d="M70 74.5h28.3v28.3H70z" class="st2"/><path id="_Повтор_за_сіткою_-13" d="M11.3 103.9h28.4v28.4H11.3z" class="st2"/><path id="_Повтор_за_сіткою_-14" d="M40.6 103.9h28.3v28.4H40.6z" class="st2"/><path id="_Повтор_за_сіткою_-15" d="M70 103.9h28.3v28.4H70z" class="st2"/><path id="_Повтор_за_сіткою_-16" d="M11.3 133.2h28.4v28.4H11.3z" class="st2"/><path id="_Повтор_за_сіткою_-17" d="M40.6 133.2h28.3v28.4H40.6z" class="st2"/><path id="_Повтор_за_сіткою_-18" d="M70 133.2h28.3v28.4H70z" class="st2"/><path id="_Повтор_за_сіткою_-19" d="M11.3 162.6h28.4V191H11.3z" class="st2"/><path id="_Повтор_за_сіткою_-20" d="M40.6 162.6h28.3V191H40.6z" class="st2"/><path id="_Повтор_за_сіткою_-21" d="M70 162.6h28.3V191H70z" class="st2"/></g><path d="M39.1 14.8h31.3v147.6H39.1z" class="st2"/><g style="clip-path:url(#clippath-1)"><path id="_Повтор_за_сіткою_-22" d="M158.3 278.5h28.4v28.4h-28.4z" class="st2"/><path id="_Повтор_за_сіткою_-23" d="M187.7 278.5h28.4v28.4h-28.4z" class="st2"/><path id="_Повтор_за_сіткою_-24" d="M217 278.5h28.4v28.4H217z" class="st2"/><path id="_Повтор_за_сіткою_-25" d="M158.3 307.9h28.4v28.4h-28.4z" class="st2"/><path id="_Повтор_за_сіткою_-26" d="M187.7 307.9h28.4v28.4h-28.4z" class="st2"/><path id="_Повтор_за_сіткою_-27" d="M217 307.9h28.4v28.4H217z" class="st2"/><path id="_Повтор_за_сіткою_-28" d="M158.3 337.2h28.4v28.4h-28.4z" class="st2"/><path id="_Повтор_за_сіткою_-29" d="M187.7 337.2h28.4v28.4h-28.4z" class="st2"/><path id="_Повтор_за_сіткою_-30" d="M217 337.2h28.4v28.4H217z" class="st2"/><path id="_Повтор_за_сіткою_-31" d="M158.3 366.6h28.4V395h-28.4z" class="st2"/><path id="_Повтор_за_сіткою_-32" d="M187.7 366.6h28.4V395h-28.4z" class="st2"/><path id="_Повтор_за_сіткою_-33" d="M217 366.6h28.4V395H217z" class="st2"/><path id="_Повтор_за_сіткою_-34" d="M158.3 396h28.4v28.4h-28.4z" class="st2"/><path id="_Повтор_за_сіткою_-35" d="M187.7 396h28.4v28.4h-28.4z" class="st2"/><path id="_Повтор_за_сіткою_-36" d="M217 396h28.4v28.4H217z" class="st2"/><path id="_Повтор_за_сіткою_-37" d="M158.3 425.3h28.4v28.4h-28.4z" class="st2"/><path id="_Повтор_за_сіткою_-38" d="M187.7 425.3h28.4v28.4h-28.4z" class="st2"/><path id="_Повтор_за_сіткою_-39" d="M217 425.3h28.4v28.4H217z" class="st2"/><path id="_Повтор_за_сіткою_-40" d="M158.3 454.7h28.4v28.4h-28.4z" class="st2"/><path id="_Повтор_за_сіткою_-41" d="M187.7 454.7h28.4v28.4h-28.4z" class="st2"/><path id="_Повтор_за_сіткою_-42" d="M217 454.7h28.4v28.4H217z" class="st2"/></g><path d="M186.2 306.9h31.3v148.4h-31.3z" class="st2"/><g style="clip-path:url(#clippath-2)"><path id="_Повтор_за_сіткою_-43" d="M246.5 131.8h28.3v28.4h-28.3z" class="st2"/><path id="_Повтор_за_сіткою_-44" d="M275.9 131.8h28.4v28.4h-28.4z" class="st2"/><path id="_Повтор_за_сіткою_-45" d="M305.2 131.8h28.4v28.4h-28.4z" class="st2"/><path id="_Повтор_за_сіткою_-46" d="M246.5 161.1h28.3v28.4h-28.3z" class="st2"/><path id="_Повтор_за_сіткою_-47" d="M275.9 161.1h28.4v28.4h-28.4z" class="st2"/><path id="_Повтор_за_сіткою_-48" d="M305.2 161.1h28.4v28.4h-28.4z" class="st2"/><path id="_Повтор_за_сіткою_-49" d="M246.5 190.5h28.3v28.4h-28.3z" class="st2"/><path id="_Повтор_за_сіткою_-50" d="M275.9 190.5h28.4v28.4h-28.4z" class="st2"/><path id="_Повтор_за_сіткою_-51" d="M305.2 190.5h28.4v28.4h-28.4z" class="st2"/><path id="_Повтор_за_сіткою_-52" d="M246.5 219.9h28.3v28.4h-28.3z" class="st2"/><path id="_Повтор_за_сіткою_-53" d="M275.9 219.9h28.4v28.4h-28.4z" class="st2"/><path id="_Повтор_за_сіткою_-54" d="M305.2 219.9h28.4v28.4h-28.4z" class="st2"/><path id="_Повтор_за_сіткою_-55" d="M246.5 249.2h28.3v28.4h-28.3z" class="st2"/><path id="_Повтор_за_сіткою_-56" d="M275.9 249.2h28.4v28.4h-28.4z" class="st2"/><path id="_Повтор_за_сіткою_-57" d="M305.2 249.2h28.4v28.4h-28.4z" class="st2"/><path id="_Повтор_за_сіткою_-58" d="M246.5 278.6h28.3V307h-28.3z" class="st2"/><path id="_Повтор_за_сіткою_-59" d="M275.9 278.6h28.4V307h-28.4z" class="st2"/><path id="_Повтор_за_сіткою_-60" d="M305.2 278.6h28.4V307h-28.4z" class="st2"/><path id="_Повтор_за_сіткою_-61" d="M246.5 307.9h28.3v28.4h-28.3z" class="st2"/><path id="_Повтор_за_сіткою_-62" d="M275.9 307.9h28.4v28.4h-28.4z" class="st2"/><path id="_Повтор_за_сіткою_-63" d="M305.2 307.9h28.4v28.4h-28.4z" class="st2"/><path id="_Повтор_за_сіткою_-64" d="M246.5 337.3h28.3v28.4h-28.3z" class="st2"/><path id="_Повтор_за_сіткою_-65" d="M275.9 337.3h28.4v28.4h-28.4z" class="st2"/><path id="_Повтор_за_сіткою_-66" d="M305.2 337.3h28.4v28.4h-28.4z" class="st2"/><path id="_Повтор_за_сіткою_-67" d="M246.5 366.6h28.3V395h-28.3z" class="st2"/><path id="_Повтор_за_сіткою_-68" d="M275.9 366.6h28.4V395h-28.4z" class="st2"/><path id="_Повтор_за_сіткою_-69" d="M305.2 366.6h28.4V395h-28.4z" class="st2"/><path id="_Повтор_за_сіткою_-70" d="M246.5 396h28.3v28.4h-28.3z" class="st2"/><path id="_Повтор_за_сіткою_-71" d="M275.9 396h28.4v28.4h-28.4z" class="st2"/><path id="_Повтор_за_сіткою_-72" d="M305.2 396h28.4v28.4h-28.4z" class="st2"/></g><path d="M274.3 160.1h31.3v236.4h-31.3z" class="st2"/><g style="clip-path:url(#clippath-3)"><path id="_Повтор_за_сіткою_-73" d="M335 132.5h28.4v28.4H335z" class="st2"/><path id="_Повтор_за_сіткою_-74" d="M364.4 132.5h28.4v28.4h-28.4z" class="st2"/><path id="_Повтор_за_сіткою_-75" d="M393.7 132.5h28.4v28.4h-28.4z" class="st2"/><path id="_Повтор_за_сіткою_-76" d="M335 161.8h28.4v28.4H335z" class="st2"/><path id="_Повтор_за_сіткою_-77" d="M364.4 161.8h28.4v28.4h-28.4z" class="st2"/><path id="_Повтор_за_сіткою_-78" d="M393.7 161.8h28.4v28.4h-28.4z" class="st2"/><path id="_Повтор_за_сіткою_-79" d="M335 191.2h28.4v28.4H335z" class="st2"/><path id="_Повтор_за_сіткою_-80" d="M364.4 191.2h28.4v28.4h-28.4z" class="st2"/><path id="_Повтор_за_сіткою_-81" d="M393.7 191.2h28.4v28.4h-28.4z" class="st2"/><path id="_Повтор_за_сіткою_-82" d="M335 220.6h28.4V249H335z" class="st2"/><path id="_Повтор_за_сіткою_-83" d="M364.4 220.6h28.4V249h-28.4z" class="st2"/><path id="_Повтор_за_сіткою_-84" d="M393.7 220.6h28.4V249h-28.4z" class="st2"/><path id="_Повтор_за_сіткою_-85" d="M335 249.9h28.4v28.4H335z" class="st2"/><path id="_Повтор_за_сіткою_-86" d="M364.4 249.9h28.4v28.4h-28.4z" class="st2"/><path id="_Повтор_за_сіткою_-87" d="M393.7 249.9h28.4v28.4h-28.4z" class="st2"/><path id="_Повтор_за_сіткою_-88" d="M335 279.3h28.4v28.4H335z" class="st2"/><path id="_Повтор_за_сіткою_-89" d="M364.4 279.3h28.4v28.4h-28.4z" class="st2"/><path id="_Повтор_за_сіткою_-90" d="M393.7 279.3h28.4v28.4h-28.4z" class="st2"/><path id="_Повтор_за_сіткою_-91" d="M335 308.6h28.4V337H335z" class="st2"/><path id="_Повтор_за_сіткою_-92" d="M364.4 308.6h28.4V337h-28.4z" class="st2"/><path id="_Повтор_за_сіткою_-93" d="M393.7 308.6h28.4V337h-28.4z" class="st2"/><path id="_Повтор_за_сіткою_-94" d="M335 338h28.4v28.4H335z" class="st2"/><path id="_Повтор_за_сіткою_-95" d="M364.4 338h28.4v28.4h-28.4z" class="st2"/><path id="_Повтор_за_сіткою_-96" d="M393.7 338h28.4v28.4h-28.4z" class="st2"/><path id="_Повтор_за_сіткою_-97" d="M335 367.3h28.4v28.4H335z" class="st2"/><path id="_Повтор_за_сіткою_-98" d="M364.4 367.3h28.4v28.4h-28.4z" class="st2"/><path id="_Повтор_за_сіткою_-99" d="M393.7 367.3h28.4v28.4h-28.4z" class="st2"/><path id="_Повтор_за_сіткою_-100" d="M335 396.7h28.4v28.4H335z" class="st2"/><path id="_Повтор_за_сіткою_-101" d="M364.4 396.7h28.4v28.4h-28.4z" class="st2"/><path id="_Повтор_за_сіткою_-102" d="M393.7 396.7h28.4v28.4h-28.4z" class="st2"/></g><path d="M362.9 160.8h31.3v236.5h-31.3z" class="st2"/><g style="clip-path:url(#clippath-4)"><path id="_Повтор_за_сіткою_-103" d="M70.4-13.9h28.3v28.4H70.4z" class="st2"/><path id="_Повтор_за_сіткою_-104" d="M99.8-13.9h28.4v28.4H99.8z" class="st2"/><path id="_Повтор_за_сіткою_-105" d="M129.2-13.9h28.4v28.4h-28.4z" class="st2"/><path id="_Повтор_за_сіткою_-106" d="M70.4 15.4h28.3v28.4H70.4z" class="st2"/><path id="_Повтор_за_сіткою_-107" d="M99.8 15.4h28.4v28.4H99.8z" class="st2"/><path id="_Повтор_за_сіткою_-108" d="M129.2 15.4h28.4v28.4h-28.4z" class="st2"/><path id="_Повтор_за_сіткою_-109" d="M70.4 44.8h28.3v28.4H70.4z" class="st2"/><path id="_Повтор_за_сіткою_-110" d="M99.8 44.8h28.4v28.4H99.8z" class="st2"/><path id="_Повтор_за_сіткою_-111" d="M129.2 44.8h28.4v28.4h-28.4z" class="st2"/><path id="_Повтор_за_сіткою_-112" d="M70.4 74.1h28.3v28.3H70.4z" class="st2"/><path id="_Повтор_за_сіткою_-113" d="M99.8 74.1h28.4v28.3H99.8z" class="st2"/><path id="_Повтор_за_сіткою_-114" d="M129.2 74.1h28.4v28.3h-28.4z" class="st2"/><path id="_Повтор_за_сіткою_-115" d="M70.4 103.5h28.3v28.3H70.4z" class="st2"/><path id="_Повтор_за_сіткою_-116" d="M99.8 103.5h28.4v28.3H99.8z" class="st2"/><path id="_Повтор_за_сіткою_-117" d="M129.2 103.5h28.4v28.3h-28.4z" class="st2"/><path id="_Повтор_за_сіткою_-118" d="M70.4 132.8h28.3v28.4H70.4z" class="st2"/><path id="_Повтор_за_сіткою_-119" d="M99.8 132.8h28.4v28.4H99.8z" class="st2"/><path id="_Повтор_за_сіткою_-120" d="M129.2 132.8h28.4v28.4h-28.4z" class="st2"/><path id="_Повтор_за_сіткою_-121" d="M70.4 162.2h28.3v28.4H70.4z" class="st2"/><path id="_Повтор_за_сіткою_-122" d="M99.8 162.2h28.4v28.4H99.8z" class="st2"/><path id="_Повтор_за_сіткою_-123" d="M129.2 162.2h28.4v28.4h-28.4z" class="st2"/><path id="_Повтор_за_сіткою_-124" d="M70.4 191.6h28.3V220H70.4z" class="st2"/><path id="_Повтор_за_сіткою_-125" d="M99.8 191.6h28.4V220H99.8z" class="st2"/><path id="_Повтор_за_сіткою_-126" d="M129.2 191.6h28.4V220h-28.4z" class="st2"/></g><path d="M98.3 14h31.4v178H98.3z" class="st2"/><g style="clip-path:url(#clippath-5)"><path id="_Повтор_за_сіткою_-127" d="M129-13.7h28.4v28.4H129z" class="st2"/><path id="_Повтор_за_сіткою_-128" d="M158.4-13.7h28.4v28.4h-28.4z" class="st2"/><path id="_Повтор_за_сіткою_-129" d="M187.8-13.7h28.4v28.4h-28.4z" class="st2"/><path id="_Повтор_за_сіткою_-130" d="M129 15.6h28.4V44H129z" class="st2"/><path id="_Повтор_за_сіткою_-131" d="M158.4 15.6h28.4V44h-28.4z" class="st2"/><path id="_Повтор_за_сіткою_-132" d="M187.8 15.6h28.4V44h-28.4z" class="st2"/><path id="_Повтор_за_сіткою_-133" d="M129 45h28.4v28.4H129z" class="st2"/><path id="_Повтор_за_сіткою_-134" d="M158.4 45h28.4v28.4h-28.4z" class="st2"/><path id="_Повтор_за_сіткою_-135" d="M187.8 45h28.4v28.4h-28.4z" class="st2"/><path id="_Повтор_за_сіткою_-136" d="M129 74.3h28.4v28.3H129z" class="st2"/><path id="_Повтор_за_сіткою_-137" d="M158.4 74.3h28.4v28.3h-28.4z" class="st2"/><path id="_Повтор_за_сіткою_-138" d="M187.8 74.3h28.4v28.3h-28.4z" class="st2"/><path id="_Повтор_за_сіткою_-139" d="M129 103.7h28.4v28.4H129z" class="st2"/><path id="_Повтор_за_сіткою_-140" d="M158.4 103.7h28.4v28.4h-28.4z" class="st2"/><path id="_Повтор_за_сіткою_-141" d="M187.8 103.7h28.4v28.4h-28.4z" class="st2"/><path id="_Повтор_за_сіткою_-142" d="M129 133.1h28.4v28.4H129z" class="st2"/><path id="_Повтор_за_сіткою_-143" d="M158.4 133.1h28.4v28.4h-28.4z" class="st2"/><path id="_Повтор_за_сіткою_-144" d="M187.8 133.1h28.4v28.4h-28.4z" class="st2"/><path id="_Повтор_за_сіткою_-145" d="M129 162.4h28.4v28.4H129z" class="st2"/><path id="_Повтор_за_сіткою_-146" d="M158.4 162.4h28.4v28.4h-28.4z" class="st2"/><path id="_Повтор_за_сіткою_-147" d="M187.8 162.4h28.4v28.4h-28.4z" class="st2"/><path id="_Повтор_за_сіткою_-148" d="M129 191.8h28.4v28.4H129z" class="st2"/><path id="_Повтор_за_сіткою_-149" d="M158.4 191.8h28.4v28.4h-28.4z" class="st2"/><path id="_Повтор_за_сіткою_-150" d="M187.8 191.8h28.4v28.4h-28.4z" class="st2"/><path id="_Повтор_за_сіткою_-151" d="M129 221.1h28.4v28.4H129z" class="st2"/><path id="_Повтор_за_сіткою_-152" d="M158.4 221.1h28.4v28.4h-28.4z" class="st2"/><path id="_Повтор_за_сіткою_-153" d="M187.8 221.1h28.4v28.4h-28.4z" class="st2"/><path id="_Повтор_за_сіткою_-154" d="M129 250.5h28.4v28.3H129z" class="st2"/><path id="_Повтор_за_сіткою_-155" d="M158.4 250.5h28.4v28.3h-28.4z" class="st2"/><path id="_Повтор_за_сіткою_-156" d="M187.8 250.5h28.4v28.3h-28.4z" class="st2"/></g><path d="M156.9 14.1h31.2v236.8h-31.2z" class="st2"/><g style="clip-path:url(#clippath-6)"><path d="M11.5 132.9h28.4v28.4H11.5zM41 132.9h28.4v28.4H41zM70.4 132.9h28.3v28.4H70.4zM99.8 132.9h28.4v28.4H99.8zM129.3 132.9h28.4v28.4h-28.4zM158.7 132.9h28.4v28.4h-28.4zM188.1 132.9h28.4v28.4h-28.4zM217.6 132.9H246v28.4h-28.4zM247 132.9h28.4v28.4H247zM11.5 162.3h28.4v28.4H11.5zM41 162.3h28.4v28.4H41zM70.4 162.3h28.3v28.4H70.4zM99.8 162.3h28.4v28.4H99.8zM129.3 162.3h28.4v28.4h-28.4zM158.7 162.3h28.4v28.4h-28.4zM188.1 162.3h28.4v28.4h-28.4zM217.6 162.3H246v28.4h-28.4zM247 162.3h28.4v28.4H247z" class="st4"/></g><path d="M11 132.3h236.3V163H11z" class="st2"/><g style="clip-path:url(#clippath-7)"><path d="M187.7 308.2h28.4v28.4h-28.4zM217.1 308.2h28.4v28.4h-28.4zM246.6 308.2H275v28.4h-28.4zM276 308.2h28.4v28.4H276zM305.4 308.2h28.4v28.4h-28.4zM334.9 308.2h28.4v28.4h-28.4zM187.7 337.6h28.4V366h-28.4zM217.1 337.6h28.4V366h-28.4zM246.6 337.6H275V366h-28.4zM276 337.6h28.4V366H276zM305.4 337.6h28.4V366h-28.4zM334.9 337.6h28.4V366h-28.4z" class="st4"/></g><path d="M187.1 307.6h148V338h-148z" class="st2"/><g style="clip-path:url(#clippath-8)"><path d="M335.2 337.8h28.4v28.4h-28.4zM364.7 337.8h28.4v28.4h-28.4zM394.1 337.8h28.4v28.4h-28.4zM423.6 337.8H452v28.4h-28.4zM453 337.8h28.4v28.4H453zM335.2 367.3h28.4v28.4h-28.4zM364.7 367.3h28.4v28.4h-28.4zM394.1 367.3h28.4v28.4h-28.4zM423.6 367.3H452v28.4h-28.4zM453 367.3h28.4v28.4H453z" class="st4"/></g><path d="M334.7 337.3h118.9v30.1H334.7z" class="st2"/><g style="clip-path:url(#clippath-9)"><path d="M128.9 191.1h28.4v28.4h-28.4zM158.4 191.1h28.4v28.4h-28.4zM187.8 191.1h28.4v28.4h-28.4zM217.3 191.1h28.4v28.4h-28.4zM246.7 191.1h28.4v28.4h-28.4zM276.2 191.1h28.4v28.4h-28.4zM305.6 191.1H334v28.4h-28.4zM335 191.1h28.4v28.4H335zM364.5 191.1h28.4v28.4h-28.4zM393.9 191.1h28.4v28.4h-28.4zM128.9 220.5h28.4v28.4h-28.4zM158.4 220.5h28.4v28.4h-28.4zM187.8 220.5h28.4v28.4h-28.4zM217.3 220.5h28.4v28.4h-28.4zM246.7 220.5h28.4v28.4h-28.4zM276.2 220.5h28.4v28.4h-28.4zM305.6 220.5H334v28.4h-28.4zM335 220.5h28.4v28.4H335zM364.5 220.5h28.4v28.4h-28.4zM393.9 220.5h28.4v28.4h-28.4z" class="st4"/></g><path d="M128.4 190.5h265.2v30.7H128.4z" class="st2"/><path d="M10.7 132.1h235.9v30.3H10.7z" style="fill:none;stroke:#1b4332;stroke-miterlimit:10;stroke-width:1.4px"/><path d="M186.5 307.1h148.3V337H186.5z" class="st4"/><path d="M334.1 337.3h118.7v29.9H334.1z" class="st2"/><path d="M129.7 190.3h234v30.3h-234z" style="stroke-width:1.4px;fill:none;stroke:#1b4332;stroke-miterlimit:10"/></g><g id="_Шар_6"><g class="st10"><g class="st10"><g class="st10"><path d="m46.6 21.3-1.5.7-.3-1.4 2.1-1h1.5v7.8h-1.8v-6.2Z" class="st14"/></g></g></g><g class="st10"><g class="st10"><g class="st10"><path d="M18.7 145.5v-1.9h-3.5v-1.2l3-4.8h2.2v4.6h.9v1.4h-.9v1.9zm0-3.2v-3.2c-.3.5-.5 1-.7 1.5l-1 1.7h1.8Z" class="st14"/></g></g></g><g class="st10"><g class="st10"><g class="st10"><path d="M138.5 195.4v1.2l-3.2 6.6h-1.9l3.2-6.3H133v-1.5z" class="st14"/></g></g></g><g class="st10"><g class="st10"><g class="st10"><path d="M192.3 317.6c0-.9.5-1.6 1.4-2-.8-.4-1.1-1.1-1.1-1.7 0-1.3 1.2-2.2 2.7-2.2s2.6 1.1 2.6 2-.4 1.3-1.1 1.7c.8.3 1.4 1 1.4 2s-1.2 2.4-3 2.4-2.9-1.1-2.9-2.2m4-.1c0-.7-.5-1.1-1.2-1.3q-.9.3-.9 1.2c0 .9.4 1.1 1.1 1.1s1.1-.4 1.1-1zm-2-3.7c0 .5.5.9 1.1 1.1.4-.1.8-.5.8-1s-.3-1-.9-1-.9.4-.9.9z" class="st14"/></g></g></g><g class="st10"><g class="st10"><g class="st10"><path d="M339.5 348.3h.8c.6 0 1.1-.2 1.5-.5.5-.3.8-.9 1-1.4-.3.3-.9.6-1.6.6-1.3 0-2.4-.9-2.4-2.4s1.2-2.8 2.9-2.8 3 1.5 3 3.4-.5 2.8-1.4 3.6c-.7.7-1.8 1-3 1.1h-.8zm1.1-3.9c0 .7.4 1.2 1.1 1.2s.8-.2 1-.5v-.5c0-.8-.3-1.6-1.1-1.6s-1.1.6-1.1 1.4z" class="st14"/></g></g></g><g class="st10"><g class="st10"><g class="st10"><path d="M284.2 166.7h-3l-.2 1.2h.5c.7 0 1.5.2 2.1.6s.9 1 .9 2c0 1.5-1.2 2.7-3.3 2.7s-1.7-.2-2.2-.4l.3-1.4c.3.2 1.1.4 1.8.4s1.6-.4 1.6-1.2-.6-1.3-2.2-1.3h-1.1l.5-4.1h4.3z" class="st14"/></g></g></g><g class="st10"><g class="st10"><g class="st10"><path d="M372.8 166.5h-.7c-1.6.1-2.3 1-2.5 1.9.4-.4.9-.6 1.7-.6 1.3 0 2.4.9 2.4 2.5s-1.2 2.8-2.9 2.8-3.1-1.5-3.1-3.4.5-2.7 1.4-3.5q1.2-1.05 3-1.2h.7v1.4Zm-1 3.9c0-.7-.4-1.3-1.2-1.3s-.9.3-1.1.7v.5c0 .8.4 1.6 1.3 1.6s1.1-.6 1.1-1.4Z" class="st14"/></g></g></g><g class="st10"><g class="st10"><g class="st10"><path d="M103.5 27.5v-1.1l1-.9c1.7-1.5 2.5-2.4 2.6-3.3 0-.6-.4-1.1-1.3-1.1s-1.3.3-1.7.6l-.5-1.3c.6-.4 1.5-.8 2.6-.8 1.8 0 2.7 1 2.7 2.4s-.9 2.4-2.1 3.4l-.7.6h2.9v1.5z" class="st14"/></g></g></g><g class="st10"><g class="st10"><g class="st10"><path d="M163.4 25.7c.3.2 1.1.5 1.8.5s1.4-.5 1.4-1-.8-1.1-1.6-1.1h-.7v-1.3h.7c.6 0 1.4-.2 1.4-.9s-.4-.8-1.2-.8-1.3.3-1.6.5l-.4-1.3c.5-.3 1.4-.6 2.4-.6 1.7 0 2.6.9 2.6 1.9s-.5 1.5-1.4 1.8c.9.2 1.7.9 1.7 1.9s-1.2 2.4-3.2 2.4-1.9-.3-2.3-.6z" class="st14"/></g></g></g></g></svg>