<?xml version="1.0" encoding="UTF-8"?>
<svg id="_Шар_1" xmlns="http://www.w3.org/2000/svg" version="1.1" xmlns:xlink="http://www.w3.org/1999/xlink" viewBox="0 0 463.1 466.4">
  <!-- Generator: Adobe Illustrator 30.0.0, SVG Export Plug-In . SVG Version: 2.1.1 Build 123)  -->
  <defs>
    <style>
      .st0 {
        stroke-width: 1.4px;
      }

      .st0, .st1, .st2, .st3, .st4 {
        fill: none;
      }

      .st0, .st2, .st3, .st4 {
        stroke: #1b4332;
        stroke-miterlimit: 10;
      }

      .st5 {
        clip-path: url(#clippath-6);
      }

      .st6 {
        clip-path: url(#clippath-7);
      }

      .st7 {
        clip-path: url(#clippath-4);
      }

      .st8 {
        clip-path: url(#clippath-9);
      }

      .st9 {
        clip-path: url(#clippath-1);
      }

      .st10 {
        isolation: isolate;
      }

      .st11 {
        clip-path: url(#clippath-5);
      }

      .st12 {
        clip-path: url(#clippath-8);
      }

      .st13 {
        clip-path: url(#clippath-3);
      }

      .st14 {
        fill: #1b4332;
      }

      .st15 {
        clip-path: url(#clippath-2);
      }

      .st16 {
        clip-path: url(#clippath);
      }

      .st3 {
        stroke-width: 1.4px;
      }

      .st4 {
        stroke-width: 1.1px;
      }
    </style>
    <clipPath id="clippath">
      <rect class="st1" x="39.1" y="14.8" width="31.3" height="147.6"/>
    </clipPath>
    <clipPath id="clippath-1">
      <rect class="st1" x="186.2" y="306.9" width="31.3" height="148.4"/>
    </clipPath>
    <clipPath id="clippath-2">
      <rect class="st1" x="274.3" y="160.1" width="31.3" height="236.4"/>
    </clipPath>
    <clipPath id="clippath-3">
      <rect class="st1" x="362.9" y="160.8" width="31.3" height="236.5"/>
    </clipPath>
    <clipPath id="clippath-4">
      <rect class="st1" x="98.3" y="14" width="31.4" height="178"/>
    </clipPath>
    <clipPath id="clippath-5">
      <rect class="st1" x="156.9" y="14.1" width="31.2" height="236.8"/>
    </clipPath>
    <clipPath id="clippath-6">
      <rect class="st1" x="11" y="132.3" width="236.3" height="30.7"/>
    </clipPath>
    <clipPath id="clippath-7">
      <rect class="st1" x="187.1" y="307.6" width="148" height="30.4"/>
    </clipPath>
    <clipPath id="clippath-8">
      <rect class="st1" x="334.7" y="337.3" width="118.9" height="30.1"/>
    </clipPath>
    <clipPath id="clippath-9">
      <rect class="st1" x="128.4" y="190.5" width="265.2" height="30.7"/>
    </clipPath>
  </defs>
  <g id="_Шар_5">
    <g>
      <g class="st16">
        <g>
          <g id="_Повтор_за_сіткою_">
            <rect class="st2" x="11.3" y="-13.6" width="28.4" height="28.4"/>
          </g>
          <g id="_Повтор_за_сіткою_-2">
            <rect class="st2" x="40.6" y="-13.6" width="28.3" height="28.4"/>
          </g>
          <g id="_Повтор_за_сіткою_-3">
            <rect class="st2" x="70" y="-13.6" width="28.3" height="28.4"/>
          </g>
          <g id="_Повтор_за_сіткою_-4">
            <rect class="st2" x="11.3" y="15.8" width="28.4" height="28.3"/>
          </g>
          <g id="_Повтор_за_сіткою_-5">
            <rect class="st2" x="40.6" y="15.8" width="28.3" height="28.3"/>
          </g>
          <g id="_Повтор_за_сіткою_-6">
            <rect class="st2" x="70" y="15.8" width="28.3" height="28.3"/>
          </g>
          <g id="_Повтор_за_сіткою_-7">
            <rect class="st2" x="11.3" y="45.2" width="28.4" height="28.3"/>
          </g>
          <g id="_Повтор_за_сіткою_-8">
            <rect class="st2" x="40.6" y="45.2" width="28.3" height="28.3"/>
          </g>
          <g id="_Повтор_за_сіткою_-9">
            <rect class="st2" x="70" y="45.2" width="28.3" height="28.3"/>
          </g>
          <g id="_Повтор_за_сіткою_-10">
            <rect class="st2" x="11.3" y="74.5" width="28.4" height="28.3"/>
          </g>
          <g id="_Повтор_за_сіткою_-11">
            <rect class="st2" x="40.6" y="74.5" width="28.3" height="28.3"/>
          </g>
          <g id="_Повтор_за_сіткою_-12">
            <rect class="st2" x="70" y="74.5" width="28.3" height="28.3"/>
          </g>
          <g id="_Повтор_за_сіткою_-13">
            <rect class="st2" x="11.3" y="103.9" width="28.4" height="28.4"/>
          </g>
          <g id="_Повтор_за_сіткою_-14">
            <rect class="st2" x="40.6" y="103.9" width="28.3" height="28.4"/>
          </g>
          <g id="_Повтор_за_сіткою_-15">
            <rect class="st2" x="70" y="103.9" width="28.3" height="28.4"/>
          </g>
          <g id="_Повтор_за_сіткою_-16">
            <rect class="st2" x="11.3" y="133.2" width="28.4" height="28.4"/>
          </g>
          <g id="_Повтор_за_сіткою_-17">
            <rect class="st2" x="40.6" y="133.2" width="28.3" height="28.4"/>
          </g>
          <g id="_Повтор_за_сіткою_-18">
            <rect class="st2" x="70" y="133.2" width="28.3" height="28.4"/>
          </g>
          <g id="_Повтор_за_сіткою_-19">
            <rect class="st2" x="11.3" y="162.6" width="28.4" height="28.4"/>
          </g>
          <g id="_Повтор_за_сіткою_-20">
            <rect class="st2" x="40.6" y="162.6" width="28.3" height="28.4"/>
          </g>
          <g id="_Повтор_за_сіткою_-21">
            <rect class="st2" x="70" y="162.6" width="28.3" height="28.4"/>
          </g>
        </g>
      </g>
      <rect class="st2" x="39.1" y="14.8" width="31.3" height="147.6"/>
    </g>
    <g>
      <g class="st9">
        <g>
          <g id="_Повтор_за_сіткою_-22">
            <rect class="st2" x="158.3" y="278.5" width="28.4" height="28.4"/>
          </g>
          <g id="_Повтор_за_сіткою_-23">
            <rect class="st2" x="187.7" y="278.5" width="28.4" height="28.4"/>
          </g>
          <g id="_Повтор_за_сіткою_-24">
            <rect class="st2" x="217" y="278.5" width="28.4" height="28.4"/>
          </g>
          <g id="_Повтор_за_сіткою_-25">
            <rect class="st2" x="158.3" y="307.9" width="28.4" height="28.4"/>
          </g>
          <g id="_Повтор_за_сіткою_-26">
            <rect class="st2" x="187.7" y="307.9" width="28.4" height="28.4"/>
          </g>
          <g id="_Повтор_за_сіткою_-27">
            <rect class="st2" x="217" y="307.9" width="28.4" height="28.4"/>
          </g>
          <g id="_Повтор_за_сіткою_-28">
            <rect class="st2" x="158.3" y="337.2" width="28.4" height="28.4"/>
          </g>
          <g id="_Повтор_за_сіткою_-29">
            <rect class="st2" x="187.7" y="337.2" width="28.4" height="28.4"/>
          </g>
          <g id="_Повтор_за_сіткою_-30">
            <rect class="st2" x="217" y="337.2" width="28.4" height="28.4"/>
          </g>
          <g id="_Повтор_за_сіткою_-31">
            <rect class="st2" x="158.3" y="366.6" width="28.4" height="28.4"/>
          </g>
          <g id="_Повтор_за_сіткою_-32">
            <rect class="st2" x="187.7" y="366.6" width="28.4" height="28.4"/>
          </g>
          <g id="_Повтор_за_сіткою_-33">
            <rect class="st2" x="217" y="366.6" width="28.4" height="28.4"/>
          </g>
          <g id="_Повтор_за_сіткою_-34">
            <rect class="st2" x="158.3" y="396" width="28.4" height="28.4"/>
          </g>
          <g id="_Повтор_за_сіткою_-35">
            <rect class="st2" x="187.7" y="396" width="28.4" height="28.4"/>
          </g>
          <g id="_Повтор_за_сіткою_-36">
            <rect class="st2" x="217" y="396" width="28.4" height="28.4"/>
          </g>
          <g id="_Повтор_за_сіткою_-37">
            <rect class="st2" x="158.3" y="425.3" width="28.4" height="28.4"/>
          </g>
          <g id="_Повтор_за_сіткою_-38">
            <rect class="st2" x="187.7" y="425.3" width="28.4" height="28.4"/>
          </g>
          <g id="_Повтор_за_сіткою_-39">
            <rect class="st2" x="217" y="425.3" width="28.4" height="28.4"/>
          </g>
          <g id="_Повтор_за_сіткою_-40">
            <rect class="st2" x="158.3" y="454.7" width="28.4" height="28.4"/>
          </g>
          <g id="_Повтор_за_сіткою_-41">
            <rect class="st2" x="187.7" y="454.7" width="28.4" height="28.4"/>
          </g>
          <g id="_Повтор_за_сіткою_-42">
            <rect class="st2" x="217" y="454.7" width="28.4" height="28.4"/>
          </g>
        </g>
      </g>
      <rect class="st2" x="186.2" y="306.9" width="31.3" height="148.4"/>
    </g>
    <g>
      <g class="st15">
        <g>
          <g id="_Повтор_за_сіткою_-43">
            <rect class="st2" x="246.5" y="131.8" width="28.3" height="28.4"/>
          </g>
          <g id="_Повтор_за_сіткою_-44">
            <rect class="st2" x="275.9" y="131.8" width="28.4" height="28.4"/>
          </g>
          <g id="_Повтор_за_сіткою_-45">
            <rect class="st2" x="305.2" y="131.8" width="28.4" height="28.4"/>
          </g>
          <g id="_Повтор_за_сіткою_-46">
            <rect class="st2" x="246.5" y="161.1" width="28.3" height="28.4"/>
          </g>
          <g id="_Повтор_за_сіткою_-47">
            <rect class="st2" x="275.9" y="161.1" width="28.4" height="28.4"/>
          </g>
          <g id="_Повтор_за_сіткою_-48">
            <rect class="st2" x="305.2" y="161.1" width="28.4" height="28.4"/>
          </g>
          <g id="_Повтор_за_сіткою_-49">
            <rect class="st2" x="246.5" y="190.5" width="28.3" height="28.4"/>
          </g>
          <g id="_Повтор_за_сіткою_-50">
            <rect class="st2" x="275.9" y="190.5" width="28.4" height="28.4"/>
          </g>
          <g id="_Повтор_за_сіткою_-51">
            <rect class="st2" x="305.2" y="190.5" width="28.4" height="28.4"/>
          </g>
          <g id="_Повтор_за_сіткою_-52">
            <rect class="st2" x="246.5" y="219.9" width="28.3" height="28.4"/>
          </g>
          <g id="_Повтор_за_сіткою_-53">
            <rect class="st2" x="275.9" y="219.9" width="28.4" height="28.4"/>
          </g>
          <g id="_Повтор_за_сіткою_-54">
            <rect class="st2" x="305.2" y="219.9" width="28.4" height="28.4"/>
          </g>
          <g id="_Повтор_за_сіткою_-55">
            <rect class="st2" x="246.5" y="249.2" width="28.3" height="28.4"/>
          </g>
          <g id="_Повтор_за_сіткою_-56">
            <rect class="st2" x="275.9" y="249.2" width="28.4" height="28.4"/>
          </g>
          <g id="_Повтор_за_сіткою_-57">
            <rect class="st2" x="305.2" y="249.2" width="28.4" height="28.4"/>
          </g>
          <g id="_Повтор_за_сіткою_-58">
            <rect class="st2" x="246.5" y="278.6" width="28.3" height="28.4"/>
          </g>
          <g id="_Повтор_за_сіткою_-59">
            <rect class="st2" x="275.9" y="278.6" width="28.4" height="28.4"/>
          </g>
          <g id="_Повтор_за_сіткою_-60">
            <rect class="st2" x="305.2" y="278.6" width="28.4" height="28.4"/>
          </g>
          <g id="_Повтор_за_сіткою_-61">
            <rect class="st2" x="246.5" y="307.9" width="28.3" height="28.4"/>
          </g>
          <g id="_Повтор_за_сіткою_-62">
            <rect class="st2" x="275.9" y="307.9" width="28.4" height="28.4"/>
          </g>
          <g id="_Повтор_за_сіткою_-63">
            <rect class="st2" x="305.2" y="307.9" width="28.4" height="28.4"/>
          </g>
          <g id="_Повтор_за_сіткою_-64">
            <rect class="st2" x="246.5" y="337.3" width="28.3" height="28.4"/>
          </g>
          <g id="_Повтор_за_сіткою_-65">
            <rect class="st2" x="275.9" y="337.3" width="28.4" height="28.4"/>
          </g>
          <g id="_Повтор_за_сіткою_-66">
            <rect class="st2" x="305.2" y="337.3" width="28.4" height="28.4"/>
          </g>
          <g id="_Повтор_за_сіткою_-67">
            <rect class="st2" x="246.5" y="366.6" width="28.3" height="28.4"/>
          </g>
          <g id="_Повтор_за_сіткою_-68">
            <rect class="st2" x="275.9" y="366.6" width="28.4" height="28.4"/>
          </g>
          <g id="_Повтор_за_сіткою_-69">
            <rect class="st2" x="305.2" y="366.6" width="28.4" height="28.4"/>
          </g>
          <g id="_Повтор_за_сіткою_-70">
            <rect class="st2" x="246.5" y="396" width="28.3" height="28.4"/>
          </g>
          <g id="_Повтор_за_сіткою_-71">
            <rect class="st2" x="275.9" y="396" width="28.4" height="28.4"/>
          </g>
          <g id="_Повтор_за_сіткою_-72">
            <rect class="st2" x="305.2" y="396" width="28.4" height="28.4"/>
          </g>
        </g>
      </g>
      <rect class="st2" x="274.3" y="160.1" width="31.3" height="236.4"/>
    </g>
    <g>
      <g class="st13">
        <g>
          <g id="_Повтор_за_сіткою_-73">
            <rect class="st2" x="335" y="132.5" width="28.4" height="28.4"/>
          </g>
          <g id="_Повтор_за_сіткою_-74">
            <rect class="st2" x="364.4" y="132.5" width="28.4" height="28.4"/>
          </g>
          <g id="_Повтор_за_сіткою_-75">
            <rect class="st2" x="393.7" y="132.5" width="28.4" height="28.4"/>
          </g>
          <g id="_Повтор_за_сіткою_-76">
            <rect class="st2" x="335" y="161.8" width="28.4" height="28.4"/>
          </g>
          <g id="_Повтор_за_сіткою_-77">
            <rect class="st2" x="364.4" y="161.8" width="28.4" height="28.4"/>
          </g>
          <g id="_Повтор_за_сіткою_-78">
            <rect class="st2" x="393.7" y="161.8" width="28.4" height="28.4"/>
          </g>
          <g id="_Повтор_за_сіткою_-79">
            <rect class="st2" x="335" y="191.2" width="28.4" height="28.4"/>
          </g>
          <g id="_Повтор_за_сіткою_-80">
            <rect class="st2" x="364.4" y="191.2" width="28.4" height="28.4"/>
          </g>
          <g id="_Повтор_за_сіткою_-81">
            <rect class="st2" x="393.7" y="191.2" width="28.4" height="28.4"/>
          </g>
          <g id="_Повтор_за_сіткою_-82">
            <rect class="st2" x="335" y="220.6" width="28.4" height="28.4"/>
          </g>
          <g id="_Повтор_за_сіткою_-83">
            <rect class="st2" x="364.4" y="220.6" width="28.4" height="28.4"/>
          </g>
          <g id="_Повтор_за_сіткою_-84">
            <rect class="st2" x="393.7" y="220.6" width="28.4" height="28.4"/>
          </g>
          <g id="_Повтор_за_сіткою_-85">
            <rect class="st2" x="335" y="249.9" width="28.4" height="28.4"/>
          </g>
          <g id="_Повтор_за_сіткою_-86">
            <rect class="st2" x="364.4" y="249.9" width="28.4" height="28.4"/>
          </g>
          <g id="_Повтор_за_сіткою_-87">
            <rect class="st2" x="393.7" y="249.9" width="28.4" height="28.4"/>
          </g>
          <g id="_Повтор_за_сіткою_-88">
            <rect class="st2" x="335" y="279.3" width="28.4" height="28.4"/>
          </g>
          <g id="_Повтор_за_сіткою_-89">
            <rect class="st2" x="364.4" y="279.3" width="28.4" height="28.4"/>
          </g>
          <g id="_Повтор_за_сіткою_-90">
            <rect class="st2" x="393.7" y="279.3" width="28.4" height="28.4"/>
          </g>
          <g id="_Повтор_за_сіткою_-91">
            <rect class="st2" x="335" y="308.6" width="28.4" height="28.4"/>
          </g>
          <g id="_Повтор_за_сіткою_-92">
            <rect class="st2" x="364.4" y="308.6" width="28.4" height="28.4"/>
          </g>
          <g id="_Повтор_за_сіткою_-93">
            <rect class="st2" x="393.7" y="308.6" width="28.4" height="28.4"/>
          </g>
          <g id="_Повтор_за_сіткою_-94">
            <rect class="st2" x="335" y="338" width="28.4" height="28.4"/>
          </g>
          <g id="_Повтор_за_сіткою_-95">
            <rect class="st2" x="364.4" y="338" width="28.4" height="28.4"/>
          </g>
          <g id="_Повтор_за_сіткою_-96">
            <rect class="st2" x="393.7" y="338" width="28.4" height="28.4"/>
          </g>
          <g id="_Повтор_за_сіткою_-97">
            <rect class="st2" x="335" y="367.3" width="28.4" height="28.4"/>
          </g>
          <g id="_Повтор_за_сіткою_-98">
            <rect class="st2" x="364.4" y="367.3" width="28.4" height="28.4"/>
          </g>
          <g id="_Повтор_за_сіткою_-99">
            <rect class="st2" x="393.7" y="367.3" width="28.4" height="28.4"/>
          </g>
          <g id="_Повтор_за_сіткою_-100">
            <rect class="st2" x="335" y="396.7" width="28.4" height="28.4"/>
          </g>
          <g id="_Повтор_за_сіткою_-101">
            <rect class="st2" x="364.4" y="396.7" width="28.4" height="28.4"/>
          </g>
          <g id="_Повтор_за_сіткою_-102">
            <rect class="st2" x="393.7" y="396.7" width="28.4" height="28.4"/>
          </g>
        </g>
      </g>
      <rect class="st2" x="362.9" y="160.8" width="31.3" height="236.5"/>
    </g>
    <g>
      <g class="st7">
        <g>
          <g id="_Повтор_за_сіткою_-103">
            <rect class="st2" x="70.4" y="-13.9" width="28.3" height="28.4"/>
          </g>
          <g id="_Повтор_за_сіткою_-104">
            <rect class="st2" x="99.8" y="-13.9" width="28.4" height="28.4"/>
          </g>
          <g id="_Повтор_за_сіткою_-105">
            <rect class="st2" x="129.2" y="-13.9" width="28.4" height="28.4"/>
          </g>
          <g id="_Повтор_за_сіткою_-106">
            <rect class="st2" x="70.4" y="15.4" width="28.3" height="28.4"/>
          </g>
          <g id="_Повтор_за_сіткою_-107">
            <rect class="st2" x="99.8" y="15.4" width="28.4" height="28.4"/>
          </g>
          <g id="_Повтор_за_сіткою_-108">
            <rect class="st2" x="129.2" y="15.4" width="28.4" height="28.4"/>
          </g>
          <g id="_Повтор_за_сіткою_-109">
            <rect class="st2" x="70.4" y="44.8" width="28.3" height="28.4"/>
          </g>
          <g id="_Повтор_за_сіткою_-110">
            <rect class="st2" x="99.8" y="44.8" width="28.4" height="28.4"/>
          </g>
          <g id="_Повтор_за_сіткою_-111">
            <rect class="st2" x="129.2" y="44.8" width="28.4" height="28.4"/>
          </g>
          <g id="_Повтор_за_сіткою_-112">
            <rect class="st2" x="70.4" y="74.1" width="28.3" height="28.3"/>
          </g>
          <g id="_Повтор_за_сіткою_-113">
            <rect class="st2" x="99.8" y="74.1" width="28.4" height="28.3"/>
          </g>
          <g id="_Повтор_за_сіткою_-114">
            <rect class="st2" x="129.2" y="74.1" width="28.4" height="28.3"/>
          </g>
          <g id="_Повтор_за_сіткою_-115">
            <rect class="st2" x="70.4" y="103.5" width="28.3" height="28.3"/>
          </g>
          <g id="_Повтор_за_сіткою_-116">
            <rect class="st2" x="99.8" y="103.5" width="28.4" height="28.3"/>
          </g>
          <g id="_Повтор_за_сіткою_-117">
            <rect class="st2" x="129.2" y="103.5" width="28.4" height="28.3"/>
          </g>
          <g id="_Повтор_за_сіткою_-118">
            <rect class="st2" x="70.4" y="132.8" width="28.3" height="28.4"/>
          </g>
          <g id="_Повтор_за_сіткою_-119">
            <rect class="st2" x="99.8" y="132.8" width="28.4" height="28.4"/>
          </g>
          <g id="_Повтор_за_сіткою_-120">
            <rect class="st2" x="129.2" y="132.8" width="28.4" height="28.4"/>
          </g>
          <g id="_Повтор_за_сіткою_-121">
            <rect class="st2" x="70.4" y="162.2" width="28.3" height="28.4"/>
          </g>
          <g id="_Повтор_за_сіткою_-122">
            <rect class="st2" x="99.8" y="162.2" width="28.4" height="28.4"/>
          </g>
          <g id="_Повтор_за_сіткою_-123">
            <rect class="st2" x="129.2" y="162.2" width="28.4" height="28.4"/>
          </g>
          <g id="_Повтор_за_сіткою_-124">
            <rect class="st2" x="70.4" y="191.6" width="28.3" height="28.4"/>
          </g>
          <g id="_Повтор_за_сіткою_-125">
            <rect class="st2" x="99.8" y="191.6" width="28.4" height="28.4"/>
          </g>
          <g id="_Повтор_за_сіткою_-126">
            <rect class="st2" x="129.2" y="191.6" width="28.4" height="28.4"/>
          </g>
        </g>
      </g>
      <rect class="st2" x="98.3" y="14" width="31.4" height="178"/>
    </g>
    <g>
      <g class="st11">
        <g>
          <g id="_Повтор_за_сіткою_-127">
            <rect class="st2" x="129" y="-13.7" width="28.4" height="28.4"/>
          </g>
          <g id="_Повтор_за_сіткою_-128">
            <rect class="st2" x="158.4" y="-13.7" width="28.4" height="28.4"/>
          </g>
          <g id="_Повтор_за_сіткою_-129">
            <rect class="st2" x="187.8" y="-13.7" width="28.4" height="28.4"/>
          </g>
          <g id="_Повтор_за_сіткою_-130">
            <rect class="st2" x="129" y="15.6" width="28.4" height="28.4"/>
          </g>
          <g id="_Повтор_за_сіткою_-131">
            <rect class="st2" x="158.4" y="15.6" width="28.4" height="28.4"/>
          </g>
          <g id="_Повтор_за_сіткою_-132">
            <rect class="st2" x="187.8" y="15.6" width="28.4" height="28.4"/>
          </g>
          <g id="_Повтор_за_сіткою_-133">
            <rect class="st2" x="129" y="45" width="28.4" height="28.4"/>
          </g>
          <g id="_Повтор_за_сіткою_-134">
            <rect class="st2" x="158.4" y="45" width="28.4" height="28.4"/>
          </g>
          <g id="_Повтор_за_сіткою_-135">
            <rect class="st2" x="187.8" y="45" width="28.4" height="28.4"/>
          </g>
          <g id="_Повтор_за_сіткою_-136">
            <rect class="st2" x="129" y="74.3" width="28.4" height="28.3"/>
          </g>
          <g id="_Повтор_за_сіткою_-137">
            <rect class="st2" x="158.4" y="74.3" width="28.4" height="28.3"/>
          </g>
          <g id="_Повтор_за_сіткою_-138">
            <rect class="st2" x="187.8" y="74.3" width="28.4" height="28.3"/>
          </g>
          <g id="_Повтор_за_сіткою_-139">
            <rect class="st2" x="129" y="103.7" width="28.4" height="28.4"/>
          </g>
          <g id="_Повтор_за_сіткою_-140">
            <rect class="st2" x="158.4" y="103.7" width="28.4" height="28.4"/>
          </g>
          <g id="_Повтор_за_сіткою_-141">
            <rect class="st2" x="187.8" y="103.7" width="28.4" height="28.4"/>
          </g>
          <g id="_Повтор_за_сіткою_-142">
            <rect class="st2" x="129" y="133.1" width="28.4" height="28.4"/>
          </g>
          <g id="_Повтор_за_сіткою_-143">
            <rect class="st2" x="158.4" y="133.1" width="28.4" height="28.4"/>
          </g>
          <g id="_Повтор_за_сіткою_-144">
            <rect class="st2" x="187.8" y="133.1" width="28.4" height="28.4"/>
          </g>
          <g id="_Повтор_за_сіткою_-145">
            <rect class="st2" x="129" y="162.4" width="28.4" height="28.4"/>
          </g>
          <g id="_Повтор_за_сіткою_-146">
            <rect class="st2" x="158.4" y="162.4" width="28.4" height="28.4"/>
          </g>
          <g id="_Повтор_за_сіткою_-147">
            <rect class="st2" x="187.8" y="162.4" width="28.4" height="28.4"/>
          </g>
          <g id="_Повтор_за_сіткою_-148">
            <rect class="st2" x="129" y="191.8" width="28.4" height="28.4"/>
          </g>
          <g id="_Повтор_за_сіткою_-149">
            <rect class="st2" x="158.4" y="191.8" width="28.4" height="28.4"/>
          </g>
          <g id="_Повтор_за_сіткою_-150">
            <rect class="st2" x="187.8" y="191.8" width="28.4" height="28.4"/>
          </g>
          <g id="_Повтор_за_сіткою_-151">
            <rect class="st2" x="129" y="221.1" width="28.4" height="28.4"/>
          </g>
          <g id="_Повтор_за_сіткою_-152">
            <rect class="st2" x="158.4" y="221.1" width="28.4" height="28.4"/>
          </g>
          <g id="_Повтор_за_сіткою_-153">
            <rect class="st2" x="187.8" y="221.1" width="28.4" height="28.4"/>
          </g>
          <g id="_Повтор_за_сіткою_-154">
            <rect class="st2" x="129" y="250.5" width="28.4" height="28.3"/>
          </g>
          <g id="_Повтор_за_сіткою_-155">
            <rect class="st2" x="158.4" y="250.5" width="28.4" height="28.3"/>
          </g>
          <g id="_Повтор_за_сіткою_-156">
            <rect class="st2" x="187.8" y="250.5" width="28.4" height="28.3"/>
          </g>
        </g>
      </g>
      <rect class="st2" x="156.9" y="14.1" width="31.2" height="236.8"/>
    </g>
    <g>
      <g class="st5">
        <g>
          <rect class="st4" x="11.5" y="132.9" width="28.4" height="28.4"/>
          <rect class="st4" x="41" y="132.9" width="28.4" height="28.4"/>
          <rect class="st4" x="70.4" y="132.9" width="28.3" height="28.4"/>
          <rect class="st4" x="99.8" y="132.9" width="28.4" height="28.4"/>
          <rect class="st4" x="129.3" y="132.9" width="28.4" height="28.4"/>
          <rect class="st4" x="158.7" y="132.9" width="28.4" height="28.4"/>
          <rect class="st4" x="188.1" y="132.9" width="28.4" height="28.4"/>
          <rect class="st4" x="217.6" y="132.9" width="28.4" height="28.4"/>
          <rect class="st4" x="247" y="132.9" width="28.4" height="28.4"/>
          <rect class="st4" x="11.5" y="162.3" width="28.4" height="28.4"/>
          <rect class="st4" x="41" y="162.3" width="28.4" height="28.4"/>
          <rect class="st4" x="70.4" y="162.3" width="28.3" height="28.4"/>
          <rect class="st4" x="99.8" y="162.3" width="28.4" height="28.4"/>
          <rect class="st4" x="129.3" y="162.3" width="28.4" height="28.4"/>
          <rect class="st4" x="158.7" y="162.3" width="28.4" height="28.4"/>
          <rect class="st4" x="188.1" y="162.3" width="28.4" height="28.4"/>
          <rect class="st4" x="217.6" y="162.3" width="28.4" height="28.4"/>
          <rect class="st4" x="247" y="162.3" width="28.4" height="28.4"/>
        </g>
      </g>
      <rect class="st2" x="11" y="132.3" width="236.3" height="30.7"/>
    </g>
    <g>
      <g class="st6">
        <g>
          <rect class="st4" x="187.7" y="308.2" width="28.4" height="28.4"/>
          <rect class="st4" x="217.1" y="308.2" width="28.4" height="28.4"/>
          <rect class="st4" x="246.6" y="308.2" width="28.4" height="28.4"/>
          <rect class="st4" x="276" y="308.2" width="28.4" height="28.4"/>
          <rect class="st4" x="305.4" y="308.2" width="28.4" height="28.4"/>
          <rect class="st4" x="334.9" y="308.2" width="28.4" height="28.4"/>
          <rect class="st4" x="187.7" y="337.6" width="28.4" height="28.4"/>
          <rect class="st4" x="217.1" y="337.6" width="28.4" height="28.4"/>
          <rect class="st4" x="246.6" y="337.6" width="28.4" height="28.4"/>
          <rect class="st4" x="276" y="337.6" width="28.4" height="28.4"/>
          <rect class="st4" x="305.4" y="337.6" width="28.4" height="28.4"/>
          <rect class="st4" x="334.9" y="337.6" width="28.4" height="28.4"/>
        </g>
      </g>
      <rect class="st2" x="187.1" y="307.6" width="148" height="30.4"/>
    </g>
    <g>
      <g class="st12">
        <g>
          <rect class="st4" x="335.2" y="337.8" width="28.4" height="28.4"/>
          <rect class="st4" x="364.7" y="337.8" width="28.4" height="28.4"/>
          <rect class="st4" x="394.1" y="337.8" width="28.4" height="28.4"/>
          <rect class="st4" x="423.6" y="337.8" width="28.4" height="28.4"/>
          <rect class="st4" x="453" y="337.8" width="28.4" height="28.4"/>
          <rect class="st4" x="335.2" y="367.3" width="28.4" height="28.4"/>
          <rect class="st4" x="364.7" y="367.3" width="28.4" height="28.4"/>
          <rect class="st4" x="394.1" y="367.3" width="28.4" height="28.4"/>
          <rect class="st4" x="423.6" y="367.3" width="28.4" height="28.4"/>
          <rect class="st4" x="453" y="367.3" width="28.4" height="28.4"/>
        </g>
      </g>
      <rect class="st2" x="334.7" y="337.3" width="118.9" height="30.1"/>
    </g>
    <g>
      <g class="st8">
        <g>
          <rect class="st4" x="128.9" y="191.1" width="28.4" height="28.4"/>
          <rect class="st4" x="158.4" y="191.1" width="28.4" height="28.4"/>
          <rect class="st4" x="187.8" y="191.1" width="28.4" height="28.4"/>
          <rect class="st4" x="217.3" y="191.1" width="28.4" height="28.4"/>
          <rect class="st4" x="246.7" y="191.1" width="28.4" height="28.4"/>
          <rect class="st4" x="276.2" y="191.1" width="28.4" height="28.4"/>
          <rect class="st4" x="305.6" y="191.1" width="28.4" height="28.4"/>
          <rect class="st4" x="335" y="191.1" width="28.4" height="28.4"/>
          <rect class="st4" x="364.5" y="191.1" width="28.4" height="28.4"/>
          <rect class="st4" x="393.9" y="191.1" width="28.4" height="28.4"/>
          <rect class="st4" x="128.9" y="220.5" width="28.4" height="28.4"/>
          <rect class="st4" x="158.4" y="220.5" width="28.4" height="28.4"/>
          <rect class="st4" x="187.8" y="220.5" width="28.4" height="28.4"/>
          <rect class="st4" x="217.3" y="220.5" width="28.4" height="28.4"/>
          <rect class="st4" x="246.7" y="220.5" width="28.4" height="28.4"/>
          <rect class="st4" x="276.2" y="220.5" width="28.4" height="28.4"/>
          <rect class="st4" x="305.6" y="220.5" width="28.4" height="28.4"/>
          <rect class="st4" x="335" y="220.5" width="28.4" height="28.4"/>
          <rect class="st4" x="364.5" y="220.5" width="28.4" height="28.4"/>
          <rect class="st4" x="393.9" y="220.5" width="28.4" height="28.4"/>
        </g>
      </g>
      <rect class="st2" x="128.4" y="190.5" width="265.2" height="30.7"/>
    </g>
    <rect class="st3" x="10.7" y="132.1" width="235.9" height="30.3"/>
    <rect class="st4" x="186.5" y="307.1" width="148.3" height="29.9"/>
    <rect class="st2" x="334.1" y="337.3" width="118.7" height="29.9"/>
    <rect class="st0" x="129.7" y="190.3" width="234" height="30.3"/>
  </g>
  <g id="_Шар_6">
    <g class="st10">
      <g class="st10">
        <g class="st10">
          <path class="st14" d="M46.6,21.3h0l-1.5.7-.3-1.4,2.1-1h1.5v7.8h-1.8v-6.2h0Z"/>
        </g>
      </g>
    </g>
    <g class="st10">
      <g class="st10">
        <g class="st10">
          <path class="st14" d="M18.7,145.5v-1.9h-3.5v-1.2l3-4.8h2.2v4.6h.9v1.4h-.9v1.9h-1.7ZM18.7,142.3v-3.2h0c-.3.5-.5,1-.7,1.5l-1,1.7h1.8,0Z"/>
        </g>
      </g>
    </g>
    <g class="st10">
      <g class="st10">
        <g class="st10">
          <path class="st14" d="M138.5,195.4v1.2l-3.2,6.6h-1.9l3.2-6.3h-3.6v-1.5h5.5Z"/>
        </g>
      </g>
    </g>
    <g class="st10">
      <g class="st10">
        <g class="st10">
          <path class="st14" d="M192.3,317.6c0-.9.5-1.6,1.4-2h0c-.8-.4-1.1-1.1-1.1-1.7,0-1.3,1.2-2.2,2.7-2.2s2.6,1.1,2.6,2-.4,1.3-1.1,1.7h0c.8.3,1.4,1,1.4,2s-1.2,2.4-3,2.4-2.9-1.1-2.9-2.2h0ZM196.3,317.5c0-.7-.5-1.1-1.2-1.3-.6.2-.9.6-.9,1.2s.4,1.1,1.1,1.1,1.1-.4,1.1-1h-.1ZM194.3,313.8c0,.5.5.9,1.1,1.1.4-.1.8-.5.8-1s-.3-1-.9-1-.9.4-.9.9h-.1Z"/>
        </g>
      </g>
    </g>
    <g class="st10">
      <g class="st10">
        <g class="st10">
          <path class="st14" d="M339.5,348.3h.8c.6,0,1.1-.2,1.5-.5.5-.3.8-.9,1-1.4h0c-.3.3-.9.6-1.6.6-1.3,0-2.4-.9-2.4-2.4s1.2-2.8,2.9-2.8,3,1.5,3,3.4-.5,2.8-1.4,3.6c-.7.7-1.8,1-3,1.1h-.8v-1.6ZM340.6,344.4c0,.7.4,1.2,1.1,1.2s.8-.2,1-.5v-.5c0-.8-.3-1.6-1.1-1.6s-1.1.6-1.1,1.4h.1Z"/>
        </g>
      </g>
    </g>
    <g class="st10">
      <g class="st10">
        <g class="st10">
          <path class="st14" d="M284.2,166.7h-3l-.2,1.2h.5c.7,0,1.5.2,2.1.6.6.4.9,1,.9,2,0,1.5-1.2,2.7-3.3,2.7s-1.7-.2-2.2-.4l.3-1.4c.3.2,1.1.4,1.8.4s1.6-.4,1.6-1.2-.6-1.3-2.2-1.3-.7,0-1.1,0l.5-4.1h4.3v1.5h0Z"/>
        </g>
      </g>
    </g>
    <g class="st10">
      <g class="st10">
        <g class="st10">
          <path class="st14" d="M372.8,166.5h-.7c-1.6.1-2.3,1-2.5,1.9h0c.4-.4.9-.6,1.7-.6,1.3,0,2.4.9,2.4,2.5s-1.2,2.8-2.9,2.8-3.1-1.5-3.1-3.4.5-2.7,1.4-3.5c.8-.7,1.8-1.1,3-1.2h.7v1.4h0ZM371.8,170.4c0-.7-.4-1.3-1.2-1.3s-.9.3-1.1.7v.5c0,.8.4,1.6,1.3,1.6s1.1-.6,1.1-1.4h0Z"/>
        </g>
      </g>
    </g>
    <g class="st10">
      <g class="st10">
        <g class="st10">
          <path class="st14" d="M103.5,27.5v-1.1l1-.9c1.7-1.5,2.5-2.4,2.6-3.3,0-.6-.4-1.1-1.3-1.1s-1.3.3-1.7.6l-.5-1.3c.6-.4,1.5-.8,2.6-.8,1.8,0,2.7,1,2.7,2.4s-.9,2.4-2.1,3.4l-.7.6h2.9v1.5s-5.5,0-5.5,0Z"/>
        </g>
      </g>
    </g>
    <g class="st10">
      <g class="st10">
        <g class="st10">
          <path class="st14" d="M163.4,25.7c.3.2,1.1.5,1.8.5s1.4-.5,1.4-1-.8-1.1-1.6-1.1h-.7v-1.3h.7c.6,0,1.4-.2,1.4-.9s-.4-.8-1.2-.8-1.3.3-1.6.5l-.4-1.3c.5-.3,1.4-.6,2.4-.6,1.7,0,2.6.9,2.6,1.9s-.5,1.5-1.4,1.8h0c.9.2,1.7.9,1.7,1.9s-1.2,2.4-3.2,2.4-1.9-.3-2.3-.6l.4-1.4h0Z"/>
        </g>
      </g>
    </g>
  </g>
</svg>